<svg fill="#000" width="800" height="800" fill="currentColor" viewBox="144 144 512 512" xmlns="http://www.w3.org/2000/svg"><g><path d="m331.48 391.43h136.54c3.5273.0 6.0469-2.5195 6.0469-6.0469.0-28.215-9.5742-37.785-36.273-48.871-4.0312-2.0156-9.0703-.50391-11.586 3.5273l-14.105 22.672c-.50391 1.0078-2.0156.50391-2.0156-.50391l-6.0469-19.648c-.50391-1.0078.0-2.0156.50391-2.5195l4.5352-4.5352c1.0078-1.0078.50391-2.5195-1.0078-2.5195h-15.621c-1.5117.0-2.0156 1.5117-1.0078 2.5195l4.5352 4.5352c.50391.50391 1.0078 1.5117.50391 2.5195l-6.5547 20.152c-.50391 1.0078-1.5117 1.0078-2.0156.50391l-14.105-22.672c-2.5195-4.0312-7.5586-5.543-11.586-3.5273-26.703 11.082-36.273 20.656-36.273 48.871-.50781 3.0234 2.5156 5.543 5.5391 5.543z"/><path d="m4e2 324.93c34.762.0 53.402-79.602.0-80.609-53.406 1.0078-34.766 80.609.0 80.609z"/><path d="m247.34 626.71H479.6c7.5586.0 14.609-3.0234 19.648-8.5664l73.051-77.078c4.5352-5.0391 7.5586-11.586 7.5586-18.641v-322.44c0-15.113-12.09-27.207-27.207-27.207h-305.31c-15.113.0-27.207 12.09-27.207 27.207v399.52c0 15.113 12.094 27.203 27.207 27.203zm10.078-406.57c0-5.0391 4.0312-9.5742 9.5742-9.5742h266.01c5.0391.0 9.5742 4.0312 9.5742 9.5742v287.68c0 5.0391-4.0312 9.5742-9.5742 9.5742h-54.918c-5.0391.0-9.5742 4.0312-9.5742 9.5742v53.402c0 5.0391-4.0312 9.5742-9.5742 9.5742l-191.95-.003906c-5.0391.0-9.5742-4.0312-9.5742-9.5742z"/><path d="m299.24 445.84h46.855c2.5195.0 4.5352-2.0156 4.5352-4.5352v-11.586c0-2.5195-2.0156-4.5352-4.5352-4.5352H299.24c-2.5195.0-4.5352 2.0156-4.5352 4.5352v11.586c0 2.5195 2.0156 4.5352 4.5352 4.5352z"/><path d="m299.24 494.21h46.855c2.5195.0 4.5352-2.0156 4.5352-4.5352v-11.586c0-2.5195-2.0156-4.5352-4.5352-4.5352H299.24c-2.5195.0-4.5352 2.0156-4.5352 4.5352v11.586c0 2.5195 2.0156 4.5352 4.5352 4.5352z"/><path d="m370.78 445.84h93.707c2.5195.0 4.5352-2.0156 4.5352-4.5352v-11.586c0-2.5195-2.0156-4.5352-4.5352-4.5352H370.78c-2.5195.0-4.5352 2.0156-4.5352 4.5352v11.586c0 2.5195 2.0156 4.5352 4.5352 4.5352z"/><path d="m366.24 478.09v11.586c0 2.5195 2.0156 4.5352 4.5352 4.5352h124.44c2.5195.0 4.5352-2.0156 4.5352-4.5352V478.09c0-2.5195-2.0156-4.5352-4.5352-4.5352h-124.44c-2.5195-.50391-4.5352 2.0156-4.5352 4.5352z"/><path d="m299.24 542.58h46.855c2.5195.0 4.5352-2.0156 4.5352-4.5352v-11.586c0-2.5195-2.0156-4.5352-4.5352-4.5352H299.24c-2.5195.0-4.5352 2.0156-4.5352 4.5352v11.586c0 2.5195 2.0156 4.5352 4.5352 4.5352z"/><path d="m447.86 521.42h-77.082c-2.5195.0-4.5352 2.0156-4.5352 4.5352v11.586c0 2.5195 2.0156 4.5352 4.5352 4.5352h77.082c2.5195.0 4.5352-2.0156 4.5352-4.5352v-11.586c.50391-2.5195-2.0156-4.5352-4.5352-4.5352z"/></g></svg>
